<svg width="24" height="24" viewBox="0 0 24 24" fill="none" xmlns="http://www.w3.org/2000/svg">
<path d="M12.5192 16.8351C11.2728 16.3983 9.9816 16.3447 9.6 15.1999V13.5999C9.96 13.4215 10.9888 12.1959 11.0976 11.2383C11.1616 11.0119 11.2112 10.2023 11.2112 10.0199C11.2112 9.0207 11.196 6.9551 11.8216 5.3383C11.6032 4.2519 11.0328 3.3367 9.8096 3.2159C9.4824 2.6743 8.644 2.3999 7.5536 2.3999C3.1928 2.4751 2.7472 5.4983 3.6224 8.9711C3.4528 9.0687 3.1728 9.3791 3.2432 9.9295C3.3744 10.9559 3.8192 11.2159 4.1024 11.2375C4.2104 12.1959 5.24 13.4215 5.6 13.5999V15.1999C4.8 17.5999 0 15.1999 0 21.5999H9.6C9.6 18.7615 11.192 17.5383 12.5192 16.8351Z" fill="#0051EE"/>
<path d="M11.2 21.5999C11.2 17.5999 15.2 18.3999 16 16.2343V15.2143C13.1032 15.2143 12.2992 14.0216 12.2992 14.0216C13.8128 12.7624 10.9504 3.99995 16.104 3.99995C16.104 3.99995 16.8 3.19995 17.6992 3.19995C24 3.19995 21.1568 12.7144 22.7864 14.052C22.7864 14.052 22.1112 15.2039 19.2 15.2039V16.2343C20 18.3999 24 17.5999 24 21.5999H11.2Z" fill="#0051EE"/>
</svg>
