<svg width="48" height="48" viewBox="0 0 48 48" fill="none" xmlns="http://www.w3.org/2000/svg">
<rect width="48" height="48" rx="12" fill="#F6F6F6"/>
<mask id="mask0_1_1767" style="mask-type:alpha" maskUnits="userSpaceOnUse" x="0" y="0" width="48" height="48">
<rect width="48" height="48" rx="12" fill="#D2D2D2"/>
</mask>
<g mask="url(#mask0_1_1767)">
<path d="M29.25 33.9994V30.4993C30.0375 30.109 32.2897 27.4279 32.526 25.3331C33.1455 25.2858 34.1185 24.717 34.4055 22.4717C34.5595 21.2659 33.947 20.5886 33.576 20.3751C33.576 20.3751 34.5 18.6198 34.5 16.5004C34.5 12.2513 32.8323 8.62511 29.25 8.62511C29.25 8.62511 28.0058 6 24 6C16.5765 6 13.5 10.7619 13.5 16.5004C13.5 18.4325 14.424 20.3751 14.424 20.3751C14.053 20.5886 13.4405 21.2676 13.5945 22.4717C13.8815 24.717 14.8545 25.2858 15.474 25.3331C15.7103 27.4279 17.9625 30.109 18.75 30.4993V33.9994C17 39.2496 3 35.7495 3 48H45C45 35.7495 31 39.2496 29.25 33.9994Z" fill="#DADADA"/>
</g>
</svg>
