<svg width="128" height="128" viewBox="0 0 128 128" fill="none" xmlns="http://www.w3.org/2000/svg">
<rect width="128" height="128" rx="10.1053" fill="#F5F5F5"/>
<mask id="mask0_1_389" style="mask-type:alpha" maskUnits="userSpaceOnUse" x="0" y="0" width="128" height="128">
<rect width="128" height="128" rx="10.1053" fill="#D2D2D2"/>
</mask>
<g mask="url(#mask0_1_389)">
<path d="M34.0789 88.1052C32.7675 88.1052 31.7258 87.6644 30.9539 86.7828C30.1864 85.8968 29.8026 84.7017 29.8026 83.1973C29.8026 81.706 30.1907 80.5174 30.9671 79.6315C31.7434 78.7411 32.7807 78.2959 34.0789 78.2959C35.114 78.2959 35.9912 78.5854 36.7105 79.1644C37.4342 79.7389 37.8706 80.4999 38.0197 81.4473H36.8223C36.6688 80.8245 36.3421 80.3267 35.8421 79.9538C35.3421 79.5767 34.7543 79.3881 34.0789 79.3881C33.1535 79.3881 32.4122 79.7345 31.8552 80.4275C31.2982 81.1205 31.0197 82.0438 31.0197 83.1973C31.0197 84.3639 31.296 85.2916 31.8486 85.9802C32.4013 86.6688 33.1469 87.0131 34.0855 87.0131C34.7828 87.0131 35.3706 86.853 35.8486 86.5328C36.3267 86.2126 36.6513 85.7631 36.8223 85.1841H38.0197C37.8004 86.1227 37.3508 86.8442 36.671 87.3486C35.9912 87.853 35.1271 88.1052 34.0789 88.1052ZM39.3026 87.9473V78.4538H40.4473V87.9473H39.3026ZM42.0526 87.9473V81.1052H43.1973V87.9473H42.0526ZM42.625 79.9538C42.432 79.9538 42.2653 79.8837 42.125 79.7433C41.9846 79.603 41.9144 79.4363 41.9144 79.2433C41.9144 79.0459 41.9846 78.8793 42.125 78.7433C42.2653 78.603 42.432 78.5328 42.625 78.5328C42.8223 78.5328 42.9912 78.603 43.1315 78.7433C43.2719 78.8793 43.3421 79.0459 43.3421 79.2433C43.3421 79.4363 43.2719 79.603 43.1315 79.7433C42.9912 79.8837 42.8223 79.9538 42.625 79.9538ZM50.4276 83.3486H49.3092C49.2214 82.9538 49.0263 82.6293 48.7236 82.3749C48.4254 82.1205 48.0372 81.9933 47.5592 81.9933C46.9627 81.9933 46.4824 82.2236 46.1184 82.6841C45.7543 83.1402 45.5723 83.7543 45.5723 84.5262C45.5723 85.3113 45.7543 85.9297 46.1184 86.3815C46.4868 86.8332 46.9714 87.0591 47.5723 87.0591C48.0328 87.0591 48.4122 86.9451 48.7105 86.717C49.0131 86.4845 49.2149 86.16 49.3157 85.7433H50.4407C50.353 86.4275 50.0438 86.9867 49.5131 87.4209C48.9868 87.8508 48.3377 88.0657 47.5657 88.0657C46.6096 88.0657 45.8442 87.7499 45.2697 87.1183C44.6951 86.4824 44.4078 85.6183 44.4078 84.5262C44.4078 83.4517 44.6951 82.5942 45.2697 81.9538C45.8442 81.3091 46.6052 80.9867 47.5526 80.9867C48.3684 80.9867 49.0307 81.217 49.5394 81.6775C50.0526 82.1381 50.3486 82.6951 50.4276 83.3486ZM52.6973 84.1446L55.7236 81.1052H57.1118L54.1447 84.0591L57.2039 87.9473H55.875L53.3355 84.7631L52.6973 85.3683V87.9473H51.5526V78.4538H52.6973V84.1446ZM60.8552 87.9473V78.4538H62V82.1973H62.0263C62.2192 81.8113 62.5 81.5131 62.8684 81.3025C63.2412 81.092 63.6842 80.9867 64.1973 80.9867C64.9429 80.9867 65.5307 81.217 65.9605 81.6775C66.3903 82.1381 66.6052 82.7543 66.6052 83.5262V87.9473H65.4605V83.7367C65.4605 83.1841 65.3223 82.7565 65.046 82.4538C64.7741 82.1512 64.3728 81.9999 63.8421 81.9999C63.2763 81.9999 62.8267 82.1775 62.4934 82.5328C62.1644 82.8881 62 83.3639 62 83.9604V87.9473H60.8552ZM70.8026 81.9802C70.2719 81.9802 69.8311 82.1644 69.4802 82.5328C69.1337 82.8968 68.9429 83.3661 68.9078 83.9407H72.6249C72.6118 83.3617 72.4385 82.8902 72.1052 82.5262C71.7719 82.1622 71.3377 81.9802 70.8026 81.9802ZM72.5986 85.9867H73.7236C73.6228 86.592 73.307 87.0898 72.7763 87.4802C72.2499 87.8705 71.6162 88.0657 70.8749 88.0657C69.8969 88.0657 69.1271 87.7499 68.5657 87.1183C68.0043 86.4867 67.7236 85.6315 67.7236 84.5525C67.7236 83.4824 68.0043 82.6205 68.5657 81.967C69.1315 81.3135 69.8837 80.9867 70.8223 80.9867C71.7434 80.9867 72.4714 81.2959 73.0065 81.9144C73.5416 82.5328 73.8092 83.3617 73.8092 84.4012V84.8354H68.9013V84.9012C68.9013 85.5591 69.0811 86.0854 69.4407 86.4802C69.8004 86.8749 70.2872 87.0723 70.9013 87.0723C71.3311 87.0723 71.6973 86.9736 71.9999 86.7762C72.3026 86.5788 72.5021 86.3157 72.5986 85.9867ZM74.9671 87.9473V81.1052H76.046V82.2236H76.0723C76.1864 81.842 76.3903 81.5416 76.6842 81.3223C76.9824 81.0986 77.3311 80.9867 77.7302 80.9867C77.8223 80.9867 77.9758 81.0021 78.1907 81.0328V82.1446C78.0679 82.1008 77.864 82.0788 77.5789 82.0788C77.1359 82.0788 76.7807 82.2258 76.5131 82.5196C76.2456 82.8135 76.1118 83.2017 76.1118 83.6841V87.9473H74.9671ZM81.5394 81.9802C81.0087 81.9802 80.5679 82.1644 80.2171 82.5328C79.8706 82.8968 79.6798 83.3661 79.6447 83.9407H83.3618C83.3486 83.3617 83.1754 82.8902 82.8421 82.5262C82.5087 82.1622 82.0745 81.9802 81.5394 81.9802ZM83.3355 85.9867H84.4605C84.3596 86.592 84.0438 87.0898 83.5131 87.4802C82.9868 87.8705 82.353 88.0657 81.6118 88.0657C80.6337 88.0657 79.864 87.7499 79.3026 87.1183C78.7412 86.4867 78.4605 85.6315 78.4605 84.5525C78.4605 83.4824 78.7412 82.6205 79.3026 81.967C79.8684 81.3135 80.6206 80.9867 81.5592 80.9867C82.4802 80.9867 83.2083 81.2959 83.7434 81.9144C84.2785 82.5328 84.546 83.3617 84.546 84.4012V84.8354H79.6381V84.9012C79.6381 85.5591 79.8179 86.0854 80.1776 86.4802C80.5372 86.8749 81.0241 87.0723 81.6381 87.0723C82.0679 87.0723 82.4342 86.9736 82.7368 86.7762C83.0394 86.5788 83.239 86.3157 83.3355 85.9867ZM88.8355 79.4538H89.9802V81.1052H91.3092V82.0459H89.9802V86.1117C89.9802 86.4231 90.0482 86.6534 90.1842 86.8025C90.3201 86.9473 90.535 87.0196 90.8289 87.0196C91.0131 87.0196 91.171 87.0087 91.3026 86.9867V87.9473C91.1535 87.9824 90.9122 87.9999 90.5789 87.9999C89.9517 87.9999 89.5043 87.8595 89.2368 87.5788C88.9692 87.2981 88.8355 86.8288 88.8355 86.1709V82.0459H87.8157V81.1052H88.8355V79.4538ZM95.171 88.0657C94.2149 88.0657 93.4473 87.7477 92.8684 87.1117C92.2894 86.4714 92 85.6095 92 84.5262C92 83.4429 92.2894 82.5832 92.8684 81.9473C93.4473 81.3069 94.2149 80.9867 95.171 80.9867C96.1228 80.9867 96.8881 81.3069 97.4671 81.9473C98.046 82.5832 98.3355 83.4429 98.3355 84.5262C98.3355 85.6052 98.046 86.4648 97.4671 87.1052C96.8881 87.7455 96.1228 88.0657 95.171 88.0657ZM93.7039 86.3881C94.0679 86.8354 94.557 87.0591 95.171 87.0591C95.785 87.0591 96.2719 86.8376 96.6315 86.3946C96.9912 85.9473 97.171 85.3245 97.171 84.5262C97.171 83.728 96.9912 83.1074 96.6315 82.6644C96.2719 82.217 95.785 81.9933 95.171 81.9933C94.557 81.9933 94.0679 82.217 93.7039 82.6644C93.3442 83.1117 93.1644 83.7324 93.1644 84.5262C93.1644 85.3201 93.3442 85.9407 93.7039 86.3881ZM28.4671 97.1052V103.947H27.3815V102.835H27.3552C26.9298 103.656 26.2061 104.066 25.1842 104.066C24.4429 104.066 23.8618 103.842 23.4407 103.395C23.0241 102.943 22.8157 102.327 22.8157 101.546V97.1052H23.9605V101.342C23.9605 102.482 24.4868 103.053 25.5394 103.053C26.0921 103.053 26.5263 102.879 26.8421 102.533C27.1622 102.182 27.3223 101.713 27.3223 101.125V97.1052H28.4671ZM33.2763 96.9867C34.1535 96.9867 34.8596 97.3091 35.3947 97.9538C35.9342 98.5986 36.2039 99.456 36.2039 100.526C36.2039 101.592 35.9364 102.449 35.4013 103.099C34.8662 103.743 34.1666 104.066 33.3026 104.066C32.8201 104.066 32.3881 103.956 32.0065 103.737C31.6249 103.517 31.3311 103.217 31.1249 102.835H31.0986V106.23H29.9539V97.1052H31.0394V98.2631H31.0657C31.2807 97.8683 31.5811 97.5569 31.9671 97.3288C32.353 97.1008 32.7894 96.9867 33.2763 96.9867ZM33.0526 103.059C33.6622 103.059 34.1447 102.831 34.4999 102.375C34.8552 101.919 35.0328 101.303 35.0328 100.526C35.0328 99.7499 34.8552 99.1337 34.4999 98.6775C34.1447 98.2214 33.6622 97.9933 33.0526 97.9933C32.4649 97.9933 31.9912 98.2258 31.6315 98.6907C31.2719 99.1556 31.0921 99.7674 31.0921 100.526C31.0921 101.289 31.2719 101.903 31.6315 102.368C31.9912 102.829 32.4649 103.059 33.0526 103.059ZM37.421 103.947V94.4538H38.5657V103.947H37.421ZM42.9473 104.066C41.9912 104.066 41.2236 103.748 40.6447 103.112C40.0657 102.471 39.7763 101.61 39.7763 100.526C39.7763 99.4429 40.0657 98.5832 40.6447 97.9473C41.2236 97.3069 41.9912 96.9867 42.9473 96.9867C43.8991 96.9867 44.6644 97.3069 45.2434 97.9473C45.8223 98.5832 46.1118 99.4429 46.1118 100.526C46.1118 101.605 45.8223 102.465 45.2434 103.105C44.6644 103.746 43.8991 104.066 42.9473 104.066ZM41.4802 102.388C41.8442 102.835 42.3333 103.059 42.9473 103.059C43.5614 103.059 44.0482 102.838 44.4078 102.395C44.7675 101.947 44.9473 101.324 44.9473 100.526C44.9473 99.728 44.7675 99.1074 44.4078 98.6644C44.0482 98.217 43.5614 97.9933 42.9473 97.9933C42.3333 97.9933 41.8442 98.217 41.4802 98.6644C41.1206 99.1117 40.9407 99.7324 40.9407 100.526C40.9407 101.32 41.1206 101.941 41.4802 102.388ZM49.5263 103.092C50.0657 103.092 50.5175 102.925 50.8815 102.592C51.25 102.254 51.4342 101.84 51.4342 101.349V100.789L49.6052 100.901C49.1447 100.932 48.7872 101.044 48.5328 101.237C48.2828 101.43 48.1578 101.688 48.1578 102.013C48.1578 102.338 48.2828 102.599 48.5328 102.796C48.7828 102.993 49.114 103.092 49.5263 103.092ZM49.2697 104.066C48.5899 104.066 48.0394 103.877 47.6184 103.5C47.2017 103.123 46.9934 102.627 46.9934 102.013C46.9934 101.425 47.2083 100.956 47.6381 100.605C48.0723 100.254 48.6842 100.057 49.4736 100.013L51.4342 99.9012V99.3288C51.4342 98.9122 51.3026 98.5854 51.0394 98.3486C50.7763 98.1117 50.4078 97.9933 49.9342 97.9933C49.5 97.9933 49.1469 98.0898 48.875 98.2828C48.603 98.4714 48.4298 98.7367 48.3552 99.0788H47.25C47.2894 98.4692 47.5526 97.9692 48.0394 97.5788C48.5307 97.1841 49.171 96.9867 49.9605 96.9867C50.7631 96.9867 51.3991 97.1885 51.8684 97.592C52.3421 97.9955 52.5789 98.5372 52.5789 99.217V103.947H51.4934V102.77H51.4671C51.2609 103.16 50.9583 103.474 50.5592 103.71C50.16 103.947 49.7302 104.066 49.2697 104.066ZM56.6249 104.066C55.7478 104.066 55.0394 103.743 54.4999 103.099C53.9649 102.454 53.6973 101.596 53.6973 100.526C53.6973 99.4604 53.9649 98.6052 54.4999 97.9604C55.035 97.3113 55.7346 96.9867 56.5986 96.9867C57.0811 96.9867 57.5131 97.0964 57.8947 97.3157C58.2763 97.535 58.5701 97.8354 58.7763 98.217H58.8026V94.4538H59.9473V103.947H58.8552V102.789H58.8355C58.6118 103.188 58.3092 103.502 57.9276 103.73C57.546 103.954 57.1118 104.066 56.6249 104.066ZM56.8421 97.9933C56.2368 97.9933 55.7565 98.2236 55.4013 98.6841C55.046 99.1402 54.8684 99.7543 54.8684 100.526C54.8684 101.303 55.046 101.919 55.4013 102.375C55.7565 102.831 56.2368 103.059 56.8421 103.059C57.4342 103.059 57.91 102.829 58.2697 102.368C58.6293 101.903 58.8092 101.289 58.8092 100.526C58.8092 99.7631 58.6271 99.1512 58.2631 98.6907C57.9035 98.2258 57.4298 97.9933 56.8421 97.9933ZM66.5131 103.092C67.0526 103.092 67.5043 102.925 67.8684 102.592C68.2368 102.254 68.421 101.84 68.421 101.349V100.789L66.5921 100.901C66.1315 100.932 65.7741 101.044 65.5197 101.237C65.2697 101.43 65.1447 101.688 65.1447 102.013C65.1447 102.338 65.2697 102.599 65.5197 102.796C65.7697 102.993 66.1008 103.092 66.5131 103.092ZM66.2565 104.066C65.5767 104.066 65.0263 103.877 64.6052 103.5C64.1885 103.123 63.9802 102.627 63.9802 102.013C63.9802 101.425 64.1951 100.956 64.6249 100.605C65.0592 100.254 65.671 100.057 66.4605 100.013L68.421 99.9012V99.3288C68.421 98.9122 68.2894 98.5854 68.0263 98.3486C67.7631 98.1117 67.3947 97.9933 66.921 97.9933C66.4868 97.9933 66.1337 98.0898 65.8618 98.2828C65.5899 98.4714 65.4166 98.7367 65.3421 99.0788H64.2368C64.2763 98.4692 64.5394 97.9692 65.0263 97.5788C65.5175 97.1841 66.1578 96.9867 66.9473 96.9867C67.7499 96.9867 68.3859 97.1885 68.8552 97.592C69.3289 97.9955 69.5657 98.5372 69.5657 99.217V103.947H68.4802V102.77H68.4539C68.2478 103.16 67.9451 103.474 67.546 103.71C67.1469 103.947 66.7171 104.066 66.2565 104.066ZM77.1052 96.9867C77.9824 96.9867 78.6885 97.3091 79.2236 97.9538C79.7631 98.5986 80.0328 99.456 80.0328 100.526C80.0328 101.592 79.7653 102.449 79.2302 103.099C78.6951 103.743 77.9956 104.066 77.1315 104.066C76.6491 104.066 76.2171 103.956 75.8355 103.737C75.4539 103.517 75.16 103.217 74.9539 102.835H74.9276V106.23H73.7828V97.1052H74.8684V98.2631H74.8947C75.1096 97.8683 75.41 97.5569 75.796 97.3288C76.182 97.1008 76.6184 96.9867 77.1052 96.9867ZM76.8815 103.059C77.4912 103.059 77.9736 102.831 78.3289 102.375C78.6842 101.919 78.8618 101.303 78.8618 100.526C78.8618 99.7499 78.6842 99.1337 78.3289 98.6775C77.9736 98.2214 77.4912 97.9933 76.8815 97.9933C76.2938 97.9933 75.8201 98.2258 75.4605 98.6907C75.1008 99.1556 74.921 99.7674 74.921 100.526C74.921 101.289 75.1008 101.903 75.4605 102.368C75.8201 102.829 76.2938 103.059 76.8815 103.059ZM81.25 103.947V94.4538H82.3947V98.1973H82.421C82.614 97.8113 82.8947 97.5131 83.2631 97.3025C83.6359 97.092 84.0789 96.9867 84.5921 96.9867C85.3377 96.9867 85.9254 97.217 86.3552 97.6775C86.785 98.1381 87 98.7543 87 99.5262V103.947H85.8552V99.7367C85.8552 99.1841 85.7171 98.7565 85.4407 98.4538C85.1688 98.1512 84.7675 97.9999 84.2368 97.9999C83.671 97.9999 83.2214 98.1775 82.8881 98.5328C82.5592 98.8881 82.3947 99.3639 82.3947 99.9604V103.947H81.25ZM91.2894 104.066C90.3333 104.066 89.5657 103.748 88.9868 103.112C88.4078 102.471 88.1184 101.61 88.1184 100.526C88.1184 99.4429 88.4078 98.5832 88.9868 97.9473C89.5657 97.3069 90.3333 96.9867 91.2894 96.9867C92.2412 96.9867 93.0065 97.3069 93.5855 97.9473C94.1644 98.5832 94.4539 99.4429 94.4539 100.526C94.4539 101.605 94.1644 102.465 93.5855 103.105C93.0065 103.746 92.2412 104.066 91.2894 104.066ZM89.8223 102.388C90.1864 102.835 90.6754 103.059 91.2894 103.059C91.9035 103.059 92.3903 102.838 92.75 102.395C93.1096 101.947 93.2894 101.324 93.2894 100.526C93.2894 99.728 93.1096 99.1074 92.75 98.6644C92.3903 98.217 91.9035 97.9933 91.2894 97.9933C90.6754 97.9933 90.1864 98.217 89.8223 98.6644C89.4627 99.1117 89.2828 99.7324 89.2828 100.526C89.2828 101.32 89.4627 101.941 89.8223 102.388ZM95.9802 95.4538H97.125V97.1052H98.4539V98.0459H97.125V102.112C97.125 102.423 97.1929 102.653 97.3289 102.803C97.4649 102.947 97.6798 103.02 97.9736 103.02C98.1579 103.02 98.3157 103.009 98.4473 102.987V103.947C98.2982 103.982 98.057 104 97.7236 104C97.0964 104 96.6491 103.86 96.3815 103.579C96.114 103.298 95.9802 102.829 95.9802 102.171V98.0459H94.9605V97.1052H95.9802V95.4538ZM102.316 104.066C101.36 104.066 100.592 103.748 100.013 103.112C99.4342 102.471 99.1447 101.61 99.1447 100.526C99.1447 99.4429 99.4342 98.5832 100.013 97.9473C100.592 97.3069 101.36 96.9867 102.316 96.9867C103.267 96.9867 104.033 97.3069 104.612 97.9473C105.191 98.5832 105.48 99.4429 105.48 100.526C105.48 101.605 105.191 102.465 104.612 103.105C104.033 103.746 103.267 104.066 102.316 104.066ZM100.849 102.388C101.213 102.835 101.702 103.059 102.316 103.059C102.93 103.059 103.417 102.838 103.776 102.395C104.136 101.947 104.316 101.324 104.316 100.526C104.316 99.728 104.136 99.1074 103.776 98.6644C103.417 98.217 102.93 97.9933 102.316 97.9933C101.702 97.9933 101.213 98.217 100.849 98.6644C100.489 99.1117 100.309 99.7324 100.309 100.526C100.309 101.32 100.489 101.941 100.849 102.388Z" fill="#818181"/>
</g>
<path d="M78.8212 30.3157H49.1791C47.6903 30.3157 46.4844 31.5216 46.4844 33.0104V54.5683C46.4844 56.0571 47.6903 57.263 49.1791 57.263H78.8212C80.3101 57.263 81.516 56.0571 81.516 54.5683V33.0104C81.516 31.5216 80.3101 30.3157 78.8212 30.3157ZM77.4738 53.2209H50.5265V43.7894L53.6106 40.7052C54.8839 39.432 56.948 39.432 58.2213 40.7052L64.0002 46.4841L67.0843 43.4C68.3576 42.1267 70.4217 42.1267 71.695 43.4L77.4738 49.1788V53.2209ZM74.7791 39.7473C73.2903 39.7473 72.0844 38.5414 72.0844 37.0525C72.0844 35.5637 73.2903 34.3578 74.7791 34.3578C76.268 34.3578 77.4738 35.5637 77.4738 37.0525C77.4738 38.5414 76.268 39.7473 74.7791 39.7473Z" fill="black"/>
<path d="M67.6123 48.0362C67.0437 48.6048 66.1275 48.6115 65.5589 48.0429L62.6162 45.1003L64.7127 43.0752L67.6123 45.9747C68.1822 46.5447 68.1822 47.4676 67.6123 48.0362Z" fill="black"/>
</svg>
