<svg width="24" height="24" viewBox="0 0 24 24" fill="none" xmlns="http://www.w3.org/2000/svg">
<path d="M19.4301 12.975C19.4701 12.655 19.5001 12.33 19.5001 12C19.5001 11.67 19.4701 11.345 19.4301 11.025L21.5451 9.37C21.7351 9.22 21.7901 8.95 21.6651 8.73L19.6651 5.265C19.5401 5.05 19.2801 4.96 19.0551 5.05L16.5651 6.055C16.0501 5.66 15.4851 5.325 14.8751 5.07L14.5001 2.42C14.4551 2.185 14.2501 2 14.0001 2H10.0001C9.75007 2 9.54507 2.185 9.50507 2.42L9.13007 5.07C8.52007 5.325 7.95507 5.655 7.44007 6.055L4.95007 5.05C4.72507 4.965 4.46507 5.05 4.34007 5.265L2.34007 8.73C2.21507 8.945 2.27007 9.215 2.46007 9.37L4.57007 11.025C4.53007 11.345 4.50007 11.67 4.50007 12C4.50007 12.33 4.53007 12.655 4.57007 12.975L2.46007 14.63C2.27007 14.78 2.21507 15.05 2.34007 15.27L4.34007 18.735C4.46507 18.95 4.72507 19.04 4.95007 18.95L7.44007 17.945C7.95507 18.34 8.52007 18.675 9.13007 18.93L9.50507 21.58C9.54507 21.815 9.75007 22 10.0001 22H14.0001C14.2501 22 14.4551 21.815 14.4951 21.58L14.8701 18.93C15.4801 18.675 16.0451 18.345 16.5601 17.945L19.0501 18.95C19.2751 19.035 19.5351 18.95 19.6601 18.735L21.6601 15.27C21.7851 15.055 21.7301 14.785 21.5401 14.63L19.4301 12.975ZM12.0001 15.5C10.0651 15.5 8.50007 13.935 8.50007 12C8.50007 10.065 10.0651 8.5 12.0001 8.5C13.9351 8.5 15.5001 10.065 15.5001 12C15.5001 13.935 13.9351 15.5 12.0001 15.5Z" fill="white"/>
</svg>
